<svg xmlns="http://www.w3.org/2000/svg" viewBox="0 0 400 300" data-imageid="fast-working-7" imageName="Report analysis" class="illustrations_image" style="width: 295px;"><g id="_109_report_analysis_outline" data-name="#109_report_analysis_outline"><path d="M129,197h0A13.36,13.36,0,0,1,115.6,183.6V68.54H221.18V183.6C142.31,191,136.33,197,129,197Z" fill="#fff"/><path d="M129,198A14.37,14.37,0,0,1,114.6,183.6V68.54a1,1,0,0,1,1-1H221.18a1,1,0,0,1,1,1V183.6a1,1,0,0,1-.91,1c-56.63,5.29-75.48,9.83-84.54,12C133.13,197.48,131.14,198,129,198ZM116.6,69.54V183.6A12.37,12.37,0,0,0,129,196c2,0,3.86-.46,7.31-1.29,9.06-2.18,27.86-6.71,83.92-12V69.54Z" fill="#093f68"/><path d="M155.66,95.49h95A19.52,19.52,0,0,1,270.17,115V231.46H179.83c-9.86,0-10.82-7.91-10.82-10.91V121.48C162.87,109.6,155.66,95.49,155.66,95.49Z" fill="#fff"/><path d="M270.17,232.46H179.83c-11,0-11.82-9.12-11.82-11.91V121.73c-6.11-11.84-13.24-25.79-13.24-25.79a1,1,0,0,1,0-1,1,1,0,0,1,.85-.47h95A20.55,20.55,0,0,1,271.17,115V231.46A1,1,0,0,1,270.17,232.46Zm-112.88-136c2,3.9,7.66,14.94,12.61,24.53a1,1,0,0,1,.11.46v99.07c0,3,1,9.91,9.82,9.91h89.34V115a18.55,18.55,0,0,0-18.53-18.52Z" fill="#093f68"/><path d="M270.17,231.46h3.44a10.8,10.8,0,0,0,10.79-10.8V209.6H187.3v10.93c0,5.45-3.41,10.7-9.78,10.7Z" fill="#68e1fd" class="target-color"/><path d="M273.61,232.46h-3.44l-92.65-.23a1,1,0,0,1,0-2c6,0,8.78-5,8.78-9.7V209.6a1,1,0,0,1,1-1h97.1a1,1,0,0,1,1,1v11.06A11.81,11.81,0,0,1,273.61,232.46Zm-3.44-2h3.44a9.81,9.81,0,0,0,9.79-9.8V210.6H188.3v9.93a12.1,12.1,0,0,1-4.49,9.72Z" fill="#093f68"/><path d="M129,197H169V108.84a13.36,13.36,0,1,0-26.71,0V183.6A13.35,13.35,0,0,1,129,197Z" fill="#68e1fd" class="target-color"/><path d="M169,198H129a1,1,0,1,1,0-2A12.37,12.37,0,0,0,141.3,183.6V108.84a14.36,14.36,0,1,1,28.71,0V197A1,1,0,0,1,169,198Zm-32.76-2H168V108.84a12.36,12.36,0,1,0-24.71,0V183.6A14.37,14.37,0,0,1,136.25,196Z" fill="#093f68"/><path d="M252.84,148.65H188.75a1,1,0,0,1-1-1V112.9a1,1,0,1,1,2,0v33.75h63.09a1,1,0,0,1,0,2Z" fill="#093f68"/><rect x="197.7" y="130.94" width="9.44" height="16.71" fill="#f56132"/><path d="M207.14,148.65H197.7a1,1,0,0,1-1-1V130.94a1,1,0,0,1,1-1h9.44a1,1,0,0,1,1,1v16.71A1,1,0,0,1,207.14,148.65Zm-8.44-2h7.44V131.94H198.7Z" fill="#093f68"/><rect x="216.05" y="121.79" width="9.44" height="25.86" fill="#ffbc0e"/><path d="M225.49,148.65h-9.44a1,1,0,0,1-1-1V121.79a1,1,0,0,1,1-1h9.44a1,1,0,0,1,1,1v25.86A1,1,0,0,1,225.49,148.65Zm-8.44-2h7.44V122.79h-7.44Z" fill="#093f68"/><rect x="234.4" y="111.81" width="9.44" height="35.84" fill="#70cc40"/><path d="M243.84,148.65H234.4a1,1,0,0,1-1-1V111.81a1,1,0,0,1,1-1h9.44a1,1,0,0,1,1,1v35.84A1,1,0,0,1,243.84,148.65Zm-8.44-2h7.44V112.81H235.4Z" fill="#093f68"/><path d="M254.81,164.47H188.7a1,1,0,0,1,0-2h66.11a1,1,0,0,1,0,2Z" fill="#dfeaef"/><path d="M254.81,175.63H188.7a1,1,0,0,1,0-2h66.11a1,1,0,0,1,0,2Z" fill="#dfeaef"/><path d="M254.81,186.79H188.7a1,1,0,0,1,0-2h66.11a1,1,0,0,1,0,2Z" fill="#dfeaef"/><path d="M236.37,198H188.7a1,1,0,0,1,0-2h47.67a1,1,0,0,1,0,2Z" fill="#dfeaef"/><rect x="151.48" y="195.48" width="6.45" height="11.78" transform="translate(144.52 -52.36) rotate(35.24)" fill="#093f68"/><path d="M153.94,209.05a1,1,0,0,1-.57-.19l-5.27-3.72a1,1,0,0,1-.24-1.39l6.8-9.63a1,1,0,0,1,1.39-.23l5.27,3.72a1,1,0,0,1,.41.64,1.05,1.05,0,0,1-.17.75l-6.8,9.62a1,1,0,0,1-.65.41Zm-3.87-5,3.63,2.56,5.65-8-3.64-2.56Z" fill="#093f68"/><rect x="155.08" y="187.95" width="9.9" height="11.78" transform="translate(141.15 -56.81) rotate(35.24)" fill="#fff"/><path d="M160.67,202.51a1,1,0,0,1-.57-.18L152,196.62a1,1,0,0,1-.24-1.4l6.8-9.62a1,1,0,0,1,.64-.41,1.05,1.05,0,0,1,.75.17l8.09,5.71a1,1,0,0,1,.24,1.39l-6.8,9.63A1,1,0,0,1,160.67,202.51ZM154,195.56l6.45,4.56,5.65-8-6.46-4.56Z" fill="#093f68"/><rect x="139.53" y="202.36" width="9.9" height="26.99" rx="2.11" transform="translate(151.01 -43.81) rotate(35.24)" fill="#fff"/><path d="M140.22,229.91a3.07,3.07,0,0,1-1.79-.57l-4.64-3.28a3.11,3.11,0,0,1-.74-4.33l13.14-18.6a3.11,3.11,0,0,1,4.33-.75l4.64,3.28a3.11,3.11,0,0,1,.75,4.33L142.77,228.6A3.13,3.13,0,0,1,140.22,229.91Zm8.51-26.1a1.09,1.09,0,0,0-.91.47l-13.14,18.6a1.11,1.11,0,0,0-.19.83,1.09,1.09,0,0,0,.46.72l4.64,3.28h0a1.11,1.11,0,0,0,1.54-.27l13.14-18.6a1.11,1.11,0,0,0-.26-1.55L149.36,204A1.12,1.12,0,0,0,148.73,203.81Z" fill="#093f68"/><path d="M186,157.09a23.28,23.28,0,1,0,5.58,32.44A23.28,23.28,0,0,0,186,157.09Z" fill="#fff"/><path d="M172.52,200.37a24.27,24.27,0,1,1,14-44.09h0a24.27,24.27,0,0,1-14,44.09Zm.07-46.53a22.25,22.25,0,1,0,12.82,4.07h0A22.17,22.17,0,0,0,172.59,153.84Z" fill="#093f68"/><circle cx="172.56" cy="176.1" r="15.84" fill="#fff"/><path d="M172.56,192.94A16.84,16.84,0,1,1,189.4,176.1,16.85,16.85,0,0,1,172.56,192.94Zm0-31.67A14.84,14.84,0,1,0,187.4,176.1,14.85,14.85,0,0,0,172.56,161.27Z" fill="#093f68"/><path d="M172.56,176.1H188.4a15.81,15.81,0,1,1-11-15.09Z" fill="#68e1fd" class="target-color"/><path d="M172.56,192.94a16.84,16.84,0,1,1,0-33.67,16.68,16.68,0,0,1,5.11.79,1,1,0,0,1,.65,1.26l-4.39,13.78H188.4a1,1,0,0,1,1,1A16.86,16.86,0,0,1,172.56,192.94Zm0-31.67a14.84,14.84,0,1,0,14.8,15.83h-14.8a1,1,0,0,1-1-1.3l4.5-14.1A14.6,14.6,0,0,0,172.56,161.27Z" fill="#093f68"/></g></svg>