<svg xmlns="http://www.w3.org/2000/svg" viewBox="0 0 400 300" data-imageid="transferwise-8e" imageName="SEO" class="illustrations_image" style="width: 295px;"><g id="_528_seo_outline" data-name="#528_seo_outline"><path d="M142.83,167.65a3.61,3.61,0,0,0-1.14-4.21c-1.1-.81-2.25-1.57-3.39-2.33a.87.87,0,0,1-.46-.93c.08-1.16.11-2.31.12-3.47a.7.7,0,0,1,.4-.71c1.21-.68,2.43-1.35,3.6-2.1a3.55,3.55,0,0,0,1.51-4.09c-.56-1.75-1.24-3.46-1.89-5.19a3.79,3.79,0,0,0-4.52-2.58c-1.22.22-2.44.45-3.65.7a.7.7,0,0,1-.78-.26c-.82-.94-1.69-1.85-2.56-2.74a.7.7,0,0,1-.22-.79c.34-1.22.66-2.42,1-3.64a3.76,3.76,0,0,0-1.93-4.42c-1.72-.83-3.47-1.62-5.22-2.37a3.63,3.63,0,0,0-4.34,1.14c-.86,1.13-1.63,2.33-2.43,3.52a.73.73,0,0,1-.73.36c-1.2-.07-2.41-.1-3.62-.1a.63.63,0,0,1-.66-.38c-.67-1.2-1.34-2.4-2.07-3.57a3.58,3.58,0,0,0-4.11-1.56c-1.88.61-3.74,1.29-5.56,2a3.67,3.67,0,0,0-2.25,4.35c.24,1.28.51,2.56.73,3.85a.73.73,0,0,1-.18.54c-.92.91-1.85,1.79-2.81,2.66a.67.67,0,0,1-.56.15c-1.22-.3-2.43-.63-3.64-1A3.74,3.74,0,0,0,87,142.37c-.89,1.78-1.71,3.6-2.48,5.44A3.59,3.59,0,0,0,85.62,152c1.17.87,2.39,1.67,3.6,2.48a.74.74,0,0,1,.34.71c-.07,1.21-.1,2.43-.1,3.65a.63.63,0,0,1-.36.63c-1.12.62-2.23,1.25-3.32,1.9a3.78,3.78,0,0,0-1.69,4.77q.87,2.4,1.8,4.8a3.76,3.76,0,0,0,4.53,2.49c1.25-.23,2.5-.46,3.75-.73a.59.59,0,0,1,.64.24c.78.85,1.55,1.71,2.37,2.52a.83.83,0,0,1,.23.93c-.34,1.19-.66,2.38-1,3.59a3.7,3.7,0,0,0,1.79,4.34c1.8.9,3.63,1.72,5.48,2.5a3.6,3.6,0,0,0,4.2-1.17c.84-1.11,1.6-2.28,2.37-3.43a.82.82,0,0,1,.82-.42c1.2.08,2.4.12,3.61.13a.62.62,0,0,1,.62.37c.63,1.11,1.28,2.2,1.91,3.31a4,4,0,0,0,2,1.73,3.25,3.25,0,0,0,2.41.09c1.71-.58,3.4-1.22,5.09-1.86a3.81,3.81,0,0,0,2.62-4.6c-.23-1.22-.46-2.44-.71-3.66a.61.61,0,0,1,.24-.68c.9-.82,1.8-1.64,2.67-2.5a.72.72,0,0,1,.8-.2c1.21.34,2.42.67,3.64,1a3.75,3.75,0,0,0,4.43-1.89Q141.68,170.36,142.83,167.65Zm-34.64,2a13.24,13.24,0,1,1,17.55-6.53A13.24,13.24,0,0,1,108.19,169.69Z" fill="#f56132"/><path d="M120.53,188.6a4.39,4.39,0,0,1-1.72-.36,5,5,0,0,1-2.44-2.15c-.27-.49-.55-1-.83-1.44l-1-1.74c-1.3,0-2.4-.06-3.45-.12l-.42.62c-.62.94-1.26,1.9-2,2.82a4.55,4.55,0,0,1-5.38,1.49c-2-.84-3.82-1.66-5.55-2.52a4.71,4.71,0,0,1-2.31-5.49c.31-1.21.63-2.4,1-3.59-.82-.82-1.55-1.63-2.26-2.42-1.19.25-2.38.47-3.58.7A4.76,4.76,0,0,1,85,171.28c-.63-1.6-1.22-3.21-1.81-4.82a4.77,4.77,0,0,1,2.12-6c1-.63,2.11-1.23,3.19-1.83,0-1.34,0-2.43.09-3.44l-.59-.4c-1-.66-2-1.33-2.94-2.05a4.57,4.57,0,0,1-1.44-5.36c.83-2,1.65-3.79,2.5-5.5a4.74,4.74,0,0,1,5.63-2.32c1.14.31,2.27.62,3.41.91.82-.74,1.63-1.52,2.5-2.37-.11-.61-.23-1.23-.35-1.84s-.23-1.2-.34-1.8a4.65,4.65,0,0,1,2.84-5.44c1.81-.76,3.71-1.45,5.65-2.08a4.56,4.56,0,0,1,5.26,2c.69,1.1,1.33,2.25,1.95,3.35l.07.13c1.32,0,2.41,0,3.44.09l.38-.57c.64-1,1.31-2,2-2.9a4.63,4.63,0,0,1,5.53-1.46c1.94.83,3.66,1.62,5.26,2.39a4.76,4.76,0,0,1,2.47,5.57q-.47,1.77-1,3.54c1,1,1.76,1.84,2.47,2.64,1.21-.25,2.39-.47,3.57-.69a4.81,4.81,0,0,1,5.64,3.22l.5,1.33c.48,1.27,1,2.58,1.4,3.91a4.57,4.57,0,0,1-1.92,5.23c-1.06.68-2.18,1.31-3.25,1.91l-.29.16c0,1.35-.06,2.43-.13,3.44h0c1.23.82,2.36,1.57,3.45,2.38a4.58,4.58,0,0,1,1.47,5.41h0c-.85,2-1.65,3.74-2.46,5.39a4.75,4.75,0,0,1-5.58,2.42c-1.19-.3-2.38-.63-3.57-1-.91.89-1.81,1.71-2.52,2.35.24,1.18.47,2.34.69,3.51a4.85,4.85,0,0,1-3.25,5.73l-.4.15c-1.57.59-3.14,1.17-4.72,1.72A4.35,4.35,0,0,1,120.53,188.6ZM111,180.78h.14c1.08.06,2.21.1,3.57.12a1.64,1.64,0,0,1,1.49.89l1.06,1.85.84,1.44a3,3,0,0,0,1.49,1.31,2.3,2.3,0,0,0,1.69.07c1.56-.54,3.12-1.12,4.67-1.71l.39-.14a2.84,2.84,0,0,0,2-3.5c-.23-1.2-.46-2.41-.71-3.63a1.62,1.62,0,0,1,.55-1.63c.73-.66,1.69-1.53,2.64-2.47a1.75,1.75,0,0,1,1.77-.45c1.2.35,2.41.68,3.62,1a2.74,2.74,0,0,0,3.28-1.36c.8-1.63,1.59-3.37,2.42-5.31h0a2.6,2.6,0,0,0-.82-3c-1.06-.78-2.19-1.53-3.34-2.29a1.88,1.88,0,0,1-.91-1.85c.07-1,.11-2.08.12-3.39a1.68,1.68,0,0,1,.91-1.58l.4-.22c1-.59,2.14-1.2,3.15-1.85a2.56,2.56,0,0,0,1.1-2.94c-.41-1.28-.9-2.57-1.37-3.81l-.5-1.35a2.82,2.82,0,0,0-3.41-1.94c-1.21.22-2.42.45-3.63.7a1.67,1.67,0,0,1-1.72-.57c-.74-.84-1.57-1.72-2.54-2.71a1.69,1.69,0,0,1-.47-1.76c.34-1.21.67-2.41,1-3.62a2.75,2.75,0,0,0-1.4-3.27c-1.58-.76-3.27-1.53-5.18-2.36a2.66,2.66,0,0,0-3.15.84c-.67.89-1.32,1.86-1.94,2.8l-.45.66a1.73,1.73,0,0,1-1.61.81c-1.08-.07-2.21-.1-3.57-.1h0a1.62,1.62,0,0,1-1.52-.9l-.14-.25c-.6-1.09-1.23-2.21-1.9-3.27a2.57,2.57,0,0,0-3-1.14c-1.88.61-3.73,1.29-5.49,2a2.67,2.67,0,0,0-1.64,3.24c.1.6.22,1.19.33,1.78s.27,1.39.39,2.08a1.67,1.67,0,0,1-.45,1.42c-1,1-1.93,1.87-2.84,2.7a1.71,1.71,0,0,1-1.5.38c-1.21-.31-2.43-.64-3.65-1a2.77,2.77,0,0,0-3.31,1.29c-.83,1.67-1.63,3.43-2.45,5.38a2.58,2.58,0,0,0,.81,3c.91.69,1.89,1.35,2.84,2l.71.48a1.69,1.69,0,0,1,.78,1.57c-.06,1.07-.09,2.21-.1,3.62a1.6,1.6,0,0,1-.87,1.49c-1.11.62-2.21,1.24-3.29,1.89A2.77,2.77,0,0,0,85,165.78c.58,1.59,1.17,3.19,1.79,4.78a2.79,2.79,0,0,0,3.41,1.87c1.25-.23,2.49-.46,3.74-.73a1.62,1.62,0,0,1,1.58.54c.75.83,1.52,1.68,2.33,2.49a1.8,1.8,0,0,1,.49,1.91c-.34,1.19-.66,2.37-1,3.57a2.7,2.7,0,0,0,1.26,3.2c1.69.84,3.47,1.64,5.43,2.47a2.61,2.61,0,0,0,3-.84c.67-.89,1.29-1.83,1.9-2.73l.44-.67A1.78,1.78,0,0,1,111,180.78Zm31.82-13.13h0ZM95,140.61s0,0,0,0Zm.3-.05h0Zm18.35,31.34a13.89,13.89,0,0,1-5.9-1.31h0a14.25,14.25,0,0,1-7.45-8.11,14,14,0,0,1,.45-10.77,14.33,14.33,0,0,1,18.84-7,14.27,14.27,0,0,1,7.05,18.87,14.33,14.33,0,0,1-13,8.32Zm0-26.5a12.27,12.27,0,0,0-11.09,7.16,12,12,0,0,0-.38,9.24,12.3,12.3,0,0,0,6.42,7h0a12,12,0,0,0,9.26.37,12.25,12.25,0,0,0,7-6.41,12.27,12.27,0,0,0-6.06-16.22A12.32,12.32,0,0,0,113.66,145.4Z" fill="#093f68"/><path d="M138.25,105.14a2.45,2.45,0,0,0-1.89-2.28c-.91-.19-1.83-.34-2.75-.48a.6.6,0,0,1-.54-.45c-.28-.74-.59-1.46-.9-2.17a.46.46,0,0,1,0-.55c.56-.76,1.13-1.52,1.64-2.32a2.41,2.41,0,0,0-.22-2.94c-.84-.93-1.74-1.79-2.63-2.68a2.57,2.57,0,0,0-3.51-.32c-.69.48-1.38,1-2.06,1.46a.47.47,0,0,1-.55.06c-.78-.35-1.57-.67-2.36-1a.45.45,0,0,1-.35-.42c-.14-.85-.27-1.68-.42-2.52a2.56,2.56,0,0,0-2.43-2.19c-1.3,0-2.6,0-3.9,0a2.47,2.47,0,0,0-2.35,1.93c-.21.94-.35,1.9-.51,2.85a.49.49,0,0,1-.35.43c-.76.3-1.51.62-2.26,1a.42.42,0,0,1-.52,0c-.75-.55-1.5-1.11-2.28-1.62a2.41,2.41,0,0,0-3,.19c-1,.9-2,1.85-2.86,2.83a2.49,2.49,0,0,0-.17,3.31c.51.73,1,1.44,1.53,2.17a.49.49,0,0,1,0,.39c-.32.82-.64,1.63-1,2.43a.49.49,0,0,1-.31.25c-.83.16-1.67.29-2.51.43a2.54,2.54,0,0,0-2.26,2.37q-.06,2,0,4a2.43,2.43,0,0,0,1.87,2.26c1,.22,1.94.36,2.92.53a.47.47,0,0,1,.4.33c.3.77.63,1.53,1,2.29a.44.44,0,0,1,0,.49c-.52.7-1,1.4-1.52,2.1a2.57,2.57,0,0,0,.3,3.42c.81.83,1.62,1.65,2.46,2.46a2.55,2.55,0,0,0,3.49.27c.71-.5,1.42-1,2.12-1.51a.39.39,0,0,1,.45,0c.72.32,1.44.63,2.18.9a.54.54,0,0,1,.4.51c.12.83.26,1.65.41,2.49a2.51,2.51,0,0,0,2.32,2.17c1.37,0,2.73,0,4.09,0a2.45,2.45,0,0,0,2.27-1.9c.2-.92.34-1.85.49-2.78a.56.56,0,0,1,.39-.49c.77-.29,1.52-.6,2.26-.94a.42.42,0,0,1,.49.06c.7.51,1.41,1,2.11,1.5a2.67,2.67,0,0,0,1.7.52,2.2,2.2,0,0,0,1.51-.62c.89-.84,1.76-1.71,2.63-2.58a2.6,2.6,0,0,0,.32-3.58c-.49-.69-1-1.37-1.47-2a.44.44,0,0,1-.05-.49c.33-.76.65-1.52,1-2.3a.48.48,0,0,1,.44-.34q1.26-.19,2.52-.42a2.54,2.54,0,0,0,2.21-2.41Q138.3,107.14,138.25,105.14Zm-20.82,11a9,9,0,1,1,9-9A9,9,0,0,1,117.43,116.13Z" fill="#70cc40"/><path d="M117.38,129c-.69,0-1.36,0-2,0a3.52,3.52,0,0,1-3.28-3c-.13-.77-.26-1.54-.38-2.31-.6-.23-1.2-.49-1.74-.72l-1.87,1.33a3.54,3.54,0,0,1-4.77-.37c-.84-.82-1.66-1.65-2.48-2.48a3.54,3.54,0,0,1-.4-4.68c.44-.64.89-1.26,1.35-1.89-.27-.6-.53-1.21-.77-1.82l-.28-.05c-.8-.13-1.62-.26-2.43-.44a3.45,3.45,0,0,1-2.65-3.21c0-1.47,0-2.81,0-4.12a3.53,3.53,0,0,1,3.1-3.32c.73-.12,1.46-.23,2.18-.36.26-.62.51-1.22.74-1.84l-.63-.89-.72-1a3.5,3.5,0,0,1,.25-4.56c.91-1,1.9-2,2.92-2.89a3.41,3.41,0,0,1,4.2-.29c.72.47,1.4,1,2.09,1.48.61-.27,1.21-.53,1.82-.77l0-.29c.13-.78.26-1.58.43-2.37a3.47,3.47,0,0,1,3.31-2.71c1.44,0,2.73,0,3.94,0a3.55,3.55,0,0,1,3.39,3c.14.76.26,1.52.38,2.28.73.28,1.36.55,1.94.8l1.86-1.32a3.58,3.58,0,0,1,4.8.43l.7.7c.65.64,1.32,1.31,2,2a3.46,3.46,0,0,1,.32,4.17c-.47.72-1,1.41-1.47,2.09l0,0c.3.68.55,1.27.76,1.84.93.14,1.77.28,2.63.46a3.45,3.45,0,0,1,2.68,3.24h0c0,1.45,0,2.77,0,4a3.56,3.56,0,0,1-3,3.37l-2.29.38c-.24.61-.5,1.22-.76,1.83.44.6.87,1.21,1.3,1.83a3.58,3.58,0,0,1-.43,4.86l-.24.25c-.8.79-1.59,1.58-2.4,2.35a3.25,3.25,0,0,1-2.17.89,3.78,3.78,0,0,1-2.31-.7l-.93-.66-1-.68c-.67.29-1.26.54-1.83.76l-.06.31c-.12.76-.24,1.54-.42,2.32a3.41,3.41,0,0,1-3.21,2.68C118.78,129,118.07,129,117.38,129Zm-7.52-8.16a1.77,1.77,0,0,1,.62.13c.7.31,1.41.62,2.12.88a1.54,1.54,0,0,1,1.05,1.29c.12.83.26,1.65.4,2.47a1.53,1.53,0,0,0,1.38,1.36c1.28,0,2.59,0,4,0a1.43,1.43,0,0,0,1.32-1.11c.16-.73.28-1.47.4-2.2l.09-.54a1.52,1.52,0,0,1,1-1.25c.68-.26,1.38-.55,2.22-.92a1.42,1.42,0,0,1,1.5.17l1.15.83.94.66a1.72,1.72,0,0,0,1.09.33,1.19,1.19,0,0,0,.85-.35c.79-.75,1.57-1.53,2.35-2.31l.25-.25a1.62,1.62,0,0,0,.21-2.3c-.48-.68-1-1.35-1.46-2a1.44,1.44,0,0,1-.15-1.49c.32-.74.64-1.48.93-2.24a1.46,1.46,0,0,1,1.21-1l2.51-.41a1.56,1.56,0,0,0,1.38-1.46c0-1.23,0-2.51,0-3.93a1.45,1.45,0,0,0-1.1-1.33c-.86-.18-1.73-.32-2.69-.47a1.59,1.59,0,0,1-1.33-1.1c-.24-.63-.52-1.3-.88-2.11a1.45,1.45,0,0,1,.16-1.55l.2-.27c.47-.65,1-1.32,1.39-2a1.4,1.4,0,0,0-.11-1.73c-.6-.66-1.26-1.31-1.89-2l-.7-.7a1.58,1.58,0,0,0-2.24-.2c-.68.47-1.37,1-2,1.45a1.47,1.47,0,0,1-1.55.16c-.76-.34-1.53-.65-2.31-.95a1.46,1.46,0,0,1-1-1.2c-.13-.84-.27-1.68-.42-2.51a1.56,1.56,0,0,0-1.47-1.36c-1.18,0-2.44,0-3.85,0a1.48,1.48,0,0,0-1.4,1.15c-.16.73-.28,1.47-.41,2.25l-.09.55a1.46,1.46,0,0,1-1,1.19c-.74.29-1.48.61-2.21.94a1.42,1.42,0,0,1-1.53-.16l-.14-.11c-.69-.5-1.38-1-2.09-1.48a1.41,1.41,0,0,0-1.74.1c-1,.9-1.94,1.83-2.81,2.77a1.5,1.5,0,0,0-.08,2.06l.71,1c.28.39.56.78.83,1.18a1.47,1.47,0,0,1,.15,1.29c-.32.85-.65,1.67-1,2.49a1.47,1.47,0,0,1-1,.84c-.84.15-1.69.29-2.54.42a1.55,1.55,0,0,0-1.41,1.42c0,1.26,0,2.57,0,4a1.44,1.44,0,0,0,1.09,1.32c.76.17,1.54.29,2.31.42l.55.09a1.48,1.48,0,0,1,1.17,1c.3.76.62,1.51,1,2.25a1.39,1.39,0,0,1-.14,1.48c-.52.7-1,1.39-1.51,2.09a1.57,1.57,0,0,0,.19,2.15c.81.82,1.62,1.64,2.44,2.44a1.57,1.57,0,0,0,2.23.17l2.09-1.49A1.35,1.35,0,0,1,109.86,120.83Zm14.93,1.87h0Zm8.26-7.71h0Zm-32.22-13.22,0,0Zm.42-.32h0ZM110,91.67Zm1.55-.69h0Zm11.29-.43Zm-5.35,26.58h-.08a10,10,0,0,1-7.11-3,9.75,9.75,0,0,1-2.84-7,10,10,0,0,1,10-9.94h0a10,10,0,0,1,10,10,10,10,0,0,1-3,7.1A9.83,9.83,0,0,1,117.51,117.13Zm-.06-17.95a7.94,7.94,0,0,0-8,8,7.81,7.81,0,0,0,2.26,5.58,8,8,0,0,0,5.7,2.41h.07a7.82,7.82,0,0,0,5.52-2.28,8,8,0,0,0,2.41-5.68,8,8,0,0,0-8-8Z" fill="#093f68"/><path d="M124.65,90H283.06a5.51,5.51,0,0,1,5.51,5.51v99.31a0,0,0,0,1,0,0H119.15a0,0,0,0,1,0,0V95.54A5.51,5.51,0,0,1,124.65,90Z" fill="#68e1fd" class="target-color"/><path d="M288.56,195.85H119.15a1,1,0,0,1-1-1V95.54a6.51,6.51,0,0,1,6.5-6.51H283.06a6.51,6.51,0,0,1,6.5,6.51v99.31A1,1,0,0,1,288.56,195.85Zm-168.41-2H287.56V95.54a4.51,4.51,0,0,0-4.5-4.51H124.65a4.51,4.51,0,0,0-4.5,4.51Z" fill="#093f68"/><path d="M101.53,194.85H306.18a0,0,0,0,1,0,0v6.34a5.41,5.41,0,0,1-5.41,5.41H106.93a5.41,5.41,0,0,1-5.41-5.41v-6.34A0,0,0,0,1,101.53,194.85Z" fill="#68e1fd" class="target-color"/><path d="M300.78,207.59H106.93a6.41,6.41,0,0,1-6.4-6.4v-6.34a1,1,0,0,1,1-1H306.18a1,1,0,0,1,1,1v6.34A6.41,6.41,0,0,1,300.78,207.59ZM102.53,195.85v5.34a4.4,4.4,0,0,0,4.4,4.4H300.78a4.4,4.4,0,0,0,4.4-4.4v-5.34Z" fill="#093f68"/><rect x="186.07" y="194.85" width="35.58" height="5.87" fill="#fff"/><path d="M221.64,201.72H186.07a1,1,0,0,1-1-1v-5.87a1,1,0,0,1,1-1h35.57a1,1,0,0,1,1,1v5.87A1,1,0,0,1,221.64,201.72Zm-34.57-2h33.57v-3.87H187.07Z" fill="#093f68"/><rect x="127.11" y="98.1" width="153.49" height="88.39" fill="#fff"/><path d="M280.6,187.49H127.11a1,1,0,0,1-1-1V98.1a1,1,0,0,1,1-1H280.6a1,1,0,0,1,1,1v88.39A1,1,0,0,1,280.6,187.49Zm-152.49-2H279.6V99.1H128.11Z" fill="#093f68"/><rect x="142.01" y="135.66" width="123.69" height="24.74" rx="12.37" fill="#68e1fd" class="target-color"/><path d="M253.33,161.4h-99a13.37,13.37,0,0,1,0-26.74h99a13.37,13.37,0,0,1,0,26.74Zm-99-24.74a11.37,11.37,0,0,0,0,22.74h99a11.37,11.37,0,0,0,0-22.74Z" fill="#093f68"/><rect x="135.88" y="107.16" width="34.9" height="8.13" fill="#093f68"/><path d="M170.78,116.3h-34.9a1,1,0,0,1-1-1v-8.14a1,1,0,0,1,1-1h34.9a1,1,0,0,1,1,1v8.14A1,1,0,0,1,170.78,116.3Zm-33.9-2h32.9v-6.14h-32.9Z" fill="#093f68"/><rect x="247.82" y="160.77" width="5.67" height="20.57" transform="translate(-47.54 227.34) rotate(-45)" fill="#093f68"/><path d="M255.92,181.33a1,1,0,0,1-.71-.29l-14.54-14.55a1,1,0,0,1,0-1.41l4-4a1,1,0,0,1,1.42,0l14.54,14.54a1,1,0,0,1,0,1.42l-4,4A1,1,0,0,1,255.92,181.33Zm-13.13-15.54,13.13,13.12,2.6-2.59-13.13-13.13Z" fill="#093f68"/><circle cx="228.68" cy="149.08" r="26.2" fill="#ffbc0e"/><path d="M228.68,176.28a27.2,27.2,0,1,1,19.24-46.44h0a27.21,27.21,0,0,1-19.24,46.44Zm0-52.4a25.2,25.2,0,1,0,17.82,7.38h0A25,25,0,0,0,228.68,123.88Z" fill="#093f68"/><circle cx="228.68" cy="149.08" r="18.53" fill="#fff"/><path d="M228.68,168.61a19.53,19.53,0,1,1,13.81-33.34h0a19.53,19.53,0,0,1-13.81,33.34Zm0-37.06a17.51,17.51,0,1,0,12.4,5.13h0A17.43,17.43,0,0,0,228.68,131.55Z" fill="#093f68"/><rect x="264.09" y="168.5" width="9.94" height="41.91" rx="2.88" transform="translate(-55.16 245.74) rotate(-45)" fill="#ffbc0e"/><path d="M280.36,207.59a3.88,3.88,0,0,1-2.74-1.13L252.06,180.9a3.87,3.87,0,0,1,0-5.49l2.95-2.95a3.87,3.87,0,0,1,5.49,0L286.06,198a3.89,3.89,0,0,1,0,5.49h0l-2.95,3A3.9,3.9,0,0,1,280.36,207.59Zm-22.61-34.27a1.87,1.87,0,0,0-1.33.55l-3,2.95a1.89,1.89,0,0,0,0,2.66L279,205a1.89,1.89,0,0,0,2.66,0l2.95-2.95a1.87,1.87,0,0,0,0-2.66l-25.55-25.56A1.88,1.88,0,0,0,257.75,173.32Zm27.6,29.48h0Z" fill="#093f68"/><path d="M235,111H198.73a1,1,0,0,1,0-2H235a1,1,0,0,1,0,2Z" fill="#dfeaef"/><path d="M251.76,111h-9.49a1,1,0,0,1,0-2h9.49a1,1,0,0,1,0,2Z" fill="#dfeaef"/><path d="M271.64,111h-11.3a1,1,0,0,1,0-2h11.3a1,1,0,0,1,0,2Z" fill="#dfeaef"/><path d="M163.46,144.21a1.9,1.9,0,0,0-.86-.59,3.09,3.09,0,0,0-1-.19,2.93,2.93,0,0,0-.58.06,2.78,2.78,0,0,0-.57.21,1.22,1.22,0,0,0-.43.38.87.87,0,0,0-.17.56.93.93,0,0,0,.4.82,4,4,0,0,0,1,.49l1.31.4a5.1,5.1,0,0,1,1.31.57,3.15,3.15,0,0,1,1,1,3,3,0,0,1,.4,1.65,3.86,3.86,0,0,1-.37,1.72,3.58,3.58,0,0,1-1,1.22,4.18,4.18,0,0,1-1.45.71,6.27,6.27,0,0,1-1.75.24,6.39,6.39,0,0,1-2.13-.35,5.36,5.36,0,0,1-1.84-1.14l1.85-2a2.78,2.78,0,0,0,1,.82,2.84,2.84,0,0,0,1.26.3,3,3,0,0,0,.65-.08,2.49,2.49,0,0,0,.58-.22,1.31,1.31,0,0,0,.42-.39,1.08,1.08,0,0,0-.25-1.39,4,4,0,0,0-1-.53c-.41-.14-.86-.29-1.34-.43a6.12,6.12,0,0,1-1.33-.59,3.25,3.25,0,0,1-1-1,2.8,2.8,0,0,1-.4-1.59,3.57,3.57,0,0,1,.37-1.67,3.76,3.76,0,0,1,1-1.2,4.38,4.38,0,0,1,1.45-.72,5.88,5.88,0,0,1,1.68-.24,6.53,6.53,0,0,1,1.93.28,4.5,4.5,0,0,1,1.69.95Z" fill="#093f68"/><path d="M167.29,141.33h8v2.4h-5.43v2.2H175v2.4h-5.13v2.41h5.73v2.4h-8.33Z" fill="#093f68"/><path d="M177.07,147.23a6.84,6.84,0,0,1,.47-2.57,5.63,5.63,0,0,1,1.33-2,5.86,5.86,0,0,1,2-1.24,7.78,7.78,0,0,1,5.1,0,5.77,5.77,0,0,1,2,1.24,5.63,5.63,0,0,1,1.33,2,7.12,7.12,0,0,1,0,5.14A5.63,5.63,0,0,1,186,153a7.61,7.61,0,0,1-5.1,0,5.71,5.71,0,0,1-2-1.24,5.63,5.63,0,0,1-1.33-2A6.8,6.8,0,0,1,177.07,147.23Zm2.7,0a4.38,4.38,0,0,0,.26,1.53,3.51,3.51,0,0,0,.74,1.2,3.37,3.37,0,0,0,1.16.79,4.08,4.08,0,0,0,3,0,3.37,3.37,0,0,0,1.16-.79,3.51,3.51,0,0,0,.74-1.2,4.17,4.17,0,0,0,.26-1.53,4.22,4.22,0,0,0-.26-1.52,3.55,3.55,0,0,0-.74-1.21,3.37,3.37,0,0,0-1.16-.79,4.21,4.21,0,0,0-3,0,3.37,3.37,0,0,0-1.16.79,3.55,3.55,0,0,0-.74,1.21A4.45,4.45,0,0,0,179.77,147.23Z" fill="#093f68"/><path d="M212.15,154.73a1,1,0,0,1-.75-.34,1,1,0,0,1,.08-1.41l12.88-11.43a1,1,0,0,1,1.41.08l7.56,8.39,34.06-22.42a1,1,0,1,1,1.1,1.67l-34.78,22.89a1,1,0,0,1-1.3-.16L225,143.7l-12.14,10.78A1,1,0,0,1,212.15,154.73Z" fill="#093f68"/><circle cx="268.81" cy="127.98" r="2.82" fill="#f56132"/><path d="M268.81,131.8a3.82,3.82,0,1,1,3.83-3.82A3.82,3.82,0,0,1,268.81,131.8Zm0-5.64a1.82,1.82,0,1,0,1.83,1.82A1.83,1.83,0,0,0,268.81,126.16Z" fill="#093f68"/><circle cx="234.06" cy="151.33" r="2.82" fill="#f56132"/><path d="M234.06,155.15a3.83,3.83,0,1,1,3.82-3.82A3.82,3.82,0,0,1,234.06,155.15Zm0-5.65a1.83,1.83,0,1,0,1.82,1.83A1.82,1.82,0,0,0,234.06,149.5Z" fill="#093f68"/><circle cx="224.8" cy="141.65" r="2.82" fill="#f56132"/><path d="M224.8,145.47a3.83,3.83,0,1,1,3.82-3.82A3.82,3.82,0,0,1,224.8,145.47Zm0-5.65a1.83,1.83,0,1,0,1.82,1.83A1.82,1.82,0,0,0,224.8,139.82Z" fill="#093f68"/></g></svg>