<svg xmlns="http://www.w3.org/2000/svg" viewBox="0 0 400 300" data-imageid="password-a" imageName="Authentication" class="illustrations_image" style="width: 295px;"><g id="_139_authentication_outline" data-name="#139_authentication_outline"><path d="M248.64,82.13V185a9,9,0,0,1-9,9H91.36a9,9,0,0,1-6.53-2.83A8.88,8.88,0,0,1,82.4,185V82.13a9,9,0,0,1,9-9H239.68A9,9,0,0,1,248.64,82.13Z" fill="#68e1fd" class="target-color"/><path d="M239.68,195H91.36a10,10,0,0,1-7.26-3.15A9.87,9.87,0,0,1,81.4,185V82.13a10,10,0,0,1,10-10H239.68a10,10,0,0,1,10,10V185A10,10,0,0,1,239.68,195ZM91.36,74.17a8,8,0,0,0-8,8V185a7.88,7.88,0,0,0,2.16,5.44,8,8,0,0,0,5.8,2.52H239.68a8,8,0,0,0,8-8V82.13a8,8,0,0,0-8-8Z" fill="#093f68"/><rect x="91.36" y="81.42" width="148.32" height="87.86" fill="#093f68"/><path d="M239.68,170.28H91.36a1,1,0,0,1-1-1V81.42a1,1,0,0,1,1-1H239.68a1,1,0,0,1,1,1v87.86A1,1,0,0,1,239.68,170.28Zm-147.32-2H238.68V82.42H92.36Z" fill="#093f68"/><polygon points="197.15 230.45 133.89 230.45 140.58 193.95 190.46 193.95 197.15 230.45" fill="#68e1fd" class="target-color"/><path d="M197.15,231.45H133.89a1,1,0,0,1-.77-.36,1,1,0,0,1-.21-.82l6.69-36.5a1,1,0,0,1,1-.82h49.88a1,1,0,0,1,1,.82l6.69,36.5a1,1,0,0,1-.21.82A1,1,0,0,1,197.15,231.45Zm-62.06-2H196L189.62,195h-48.2Z" fill="#093f68"/><circle cx="165.52" cy="180.72" r="3.89" fill="#093f68"/><path d="M165.52,185.61a4.89,4.89,0,1,1,4.89-4.89A4.89,4.89,0,0,1,165.52,185.61Zm0-7.78a2.89,2.89,0,1,0,2.89,2.89A2.89,2.89,0,0,0,165.52,177.83Z" fill="#093f68"/><rect x="118.79" y="220.85" width="93.47" height="10.25" rx="4.2" fill="#68e1fd" class="target-color"/><path d="M208.05,232.1H123a5.2,5.2,0,0,1-5.2-5.2v-1.85a5.2,5.2,0,0,1,5.2-5.2h85.06a5.2,5.2,0,0,1,5.2,5.2v1.85A5.2,5.2,0,0,1,208.05,232.1ZM123,221.85a3.2,3.2,0,0,0-3.2,3.2v1.85a3.2,3.2,0,0,0,3.2,3.2h85.06a3.2,3.2,0,0,0,3.2-3.2v-1.85a3.2,3.2,0,0,0-3.2-3.2Z" fill="#093f68"/><rect x="229.2" y="99.25" width="84.5" height="131.85" rx="7.81" fill="#68e1fd" class="target-color"/><path d="M305.89,232.1H237a8.82,8.82,0,0,1-8.81-8.81V107.06A8.82,8.82,0,0,1,237,98.25h68.88a8.82,8.82,0,0,1,8.81,8.81V223.29A8.82,8.82,0,0,1,305.89,232.1ZM237,100.25a6.82,6.82,0,0,0-6.81,6.81V223.29A6.82,6.82,0,0,0,237,230.1h68.88a6.82,6.82,0,0,0,6.81-6.81V107.06a6.82,6.82,0,0,0-6.81-6.81Z" fill="#093f68"/><rect x="229.2" y="108.49" width="84.5" height="110.98" fill="#fff"/><path d="M313.7,220.47H229.2a1,1,0,0,1-1-1v-111a1,1,0,0,1,1-1h84.5a1,1,0,0,1,1,1v111A1,1,0,0,1,313.7,220.47Zm-83.5-2h82.5v-109H230.2Z" fill="#093f68"/><path d="M271.45,116.93a44.57,44.57,0,0,1-33.83,13.75v34.8c0,12.42,21.05,29.69,33.83,31.84,12.78-2.15,33.83-19.42,33.83-31.84v-34.8A44.57,44.57,0,0,1,271.45,116.93Z" fill="#fff"/><path d="M271.45,198.32l-.17,0c-12.42-2.08-34.66-19.43-34.66-32.82v-34.8a1,1,0,0,1,.31-.71.89.89,0,0,1,.73-.28l1.47,0a43.94,43.94,0,0,0,31.56-13.43,1,1,0,0,1,1.52,0,43.94,43.94,0,0,0,31.56,13.43l1.47,0a.88.88,0,0,1,.73.28,1,1,0,0,1,.31.71v34.8c0,13.39-22.24,30.74-34.66,32.82Zm-32.83-66.61v33.77c0,11.44,20.09,28.56,32.83,30.82,12.74-2.26,32.83-19.38,32.83-30.82V131.71a45.49,45.49,0,0,1-32.83-13.3A45.62,45.62,0,0,1,238.62,131.71Z" fill="#093f68"/><path d="M301.42,134.51v31c0,4.44-4.15,10.92-10.84,16.9a62.33,62.33,0,0,1-5.65,4.48,52.89,52.89,0,0,1-5.87,3.61,30.4,30.4,0,0,1-7.61,2.92,30.26,30.26,0,0,1-7.61-2.92,52.89,52.89,0,0,1-5.87-3.61,62.33,62.33,0,0,1-5.65-4.48c-6.69-6-10.84-12.46-10.84-16.9v-31a48.76,48.76,0,0,0,30-12.16A48.76,48.76,0,0,0,301.42,134.51Z" fill="#68e1fd" class="target-color"/><path d="M271.45,194.39l-.21,0a31.48,31.48,0,0,1-7.86-3,54.67,54.67,0,0,1-6-3.68,62.07,62.07,0,0,1-5.74-4.56c-6.89-6.16-11.17-12.92-11.17-17.64v-31a1,1,0,0,1,1-1,47.78,47.78,0,0,0,29.36-11.91,1,1,0,0,1,1.32,0,47.78,47.78,0,0,0,29.35,11.91,1,1,0,0,1,1,1v31c0,4.72-4.28,11.48-11.17,17.64a63.44,63.44,0,0,1-5.74,4.56,54.67,54.67,0,0,1-6,3.68,31.64,31.64,0,0,1-7.87,3Zm-29-58.93v30c0,4.11,4.12,10.45,10.5,16.15a61.15,61.15,0,0,0,5.56,4.41,50.13,50.13,0,0,0,5.77,3.54,29.69,29.69,0,0,0,7.14,2.79,29.69,29.69,0,0,0,7.14-2.79,50.13,50.13,0,0,0,5.77-3.54,61.15,61.15,0,0,0,5.56-4.41c6.38-5.71,10.5-12,10.5-16.15v-30a49.73,49.73,0,0,1-29-11.79A49.73,49.73,0,0,1,242.48,135.46Z" fill="#093f68"/><path d="M284.93,179.57v7.29a52.89,52.89,0,0,1-5.87,3.61,30.4,30.4,0,0,1-7.61,2.92,30.26,30.26,0,0,1-7.61-2.92,52.89,52.89,0,0,1-5.87-3.61v-7.29a9.12,9.12,0,0,1,9.12-9.12h8.72A9.12,9.12,0,0,1,284.93,179.57Z" fill="#ffbc0e"/><path d="M271.45,194.39l-.21,0a31.48,31.48,0,0,1-7.86-3,54.67,54.67,0,0,1-6-3.68,1,1,0,0,1-.42-.82v-7.29a10.13,10.13,0,0,1,10.12-10.12h8.72a10.13,10.13,0,0,1,10.12,10.12v7.29a1,1,0,0,1-.42.82,54.67,54.67,0,0,1-6,3.68,31.64,31.64,0,0,1-7.87,3Zm-12.48-8a50.08,50.08,0,0,0,5.34,3.24,29.69,29.69,0,0,0,7.14,2.79,29.69,29.69,0,0,0,7.14-2.79,50.08,50.08,0,0,0,5.34-3.24v-6.77a8.13,8.13,0,0,0-8.12-8.12h-8.72a8.13,8.13,0,0,0-8.12,8.12Zm26,.52h0Z" fill="#093f68"/><path d="M270.41,132.59a23.17,23.17,0,0,1,3.63.17,16.81,16.81,0,0,1,8.59,3.46c6.63,5.38,5.25,14.31,5.25,21.88H255.73a6.54,6.54,0,0,1,.13-2,8.8,8.8,0,0,0-.31-2.09,28.32,28.32,0,0,1-.63-5.35c0-2.55.26-6,1.6-8.17a16.74,16.74,0,0,1,6-5.83A17.26,17.26,0,0,1,270.41,132.59Z" fill="#725858"/><path d="M287.88,159.1H255.73a1,1,0,0,1-1-.73,3.89,3.89,0,0,1,0-1.77c0-.2.06-.39.07-.56a5.49,5.49,0,0,0-.19-1.38l-.1-.47a29.44,29.44,0,0,1-.65-5.54c0-2.12.15-6.07,1.75-8.7a17.18,17.18,0,0,1,14.7-8.35,25.45,25.45,0,0,1,3.78.16,17.71,17.71,0,0,1,9.11,3.69c6.05,4.9,5.85,12.55,5.68,19.29,0,1.14-.06,2.26-.06,3.36A1,1,0,0,1,287.88,159.1Zm-31.15-2h30.15l.06-2.41c.17-6.59.35-13.41-4.94-17.69a15.69,15.69,0,0,0-8.08-3.25,24.31,24.31,0,0,0-3.48-.16h0a16.07,16.07,0,0,0-7.41,1.92,15.64,15.64,0,0,0-5.65,5.49c-1,1.6-1.51,4.38-1.46,7.62a27.93,27.93,0,0,0,.61,5.17l.09.44a7.09,7.09,0,0,1,.24,1.89c0,.26-.06.54-.1.82Zm13.68-24.51h0Z" fill="#093f68"/><path d="M269.27,168.71h4.59a0,0,0,0,1,0,0v2.64a1.95,1.95,0,0,1-1.95,1.95h-.69a1.95,1.95,0,0,1-1.95-1.95v-2.64A0,0,0,0,1,269.27,168.71Z" fill="#ffc9b0"/><path d="M271.91,174.29h-.69a3,3,0,0,1-3-2.94v-2.64a1,1,0,0,1,1-1h4.59a1,1,0,0,1,1,1v2.64A3,3,0,0,1,271.91,174.29Zm-1.64-4.58v1.64a1,1,0,0,0,1,.94h.69a.94.94,0,0,0,.95-.94v-1.64Z" fill="#093f68"/><ellipse cx="258.46" cy="156.79" rx="4.46" ry="3.84" fill="#ffc9b0"/><path d="M258.46,161.63c-3,0-5.46-2.17-5.46-4.84s2.45-4.84,5.46-4.84,5.46,2.17,5.46,4.84S261.47,161.63,258.46,161.63Zm0-7.68c-1.91,0-3.46,1.28-3.46,2.84s1.55,2.84,3.46,2.84,3.46-1.27,3.46-2.84S260.37,154,258.46,154Z" fill="#093f68"/><ellipse cx="284.44" cy="156.79" rx="4.46" ry="3.84" fill="#ffc9b0"/><path d="M284.44,161.63c-3,0-5.46-2.17-5.46-4.84s2.45-4.84,5.46-4.84,5.46,2.17,5.46,4.84S287.45,161.63,284.44,161.63Zm0-7.68c-1.91,0-3.46,1.28-3.46,2.84s1.55,2.84,3.46,2.84,3.46-1.27,3.46-2.84S286.35,154,284.44,154Z" fill="#093f68"/><path d="M271.57,169.31h0a13.44,13.44,0,0,1-13.44-13.44v-5s3.78-2.25,4.79-5.29a22.82,22.82,0,0,0,9.12,4.71,27.07,27.07,0,0,0,13-.7v6.23A13.44,13.44,0,0,1,271.57,169.31Z" fill="#ffc9b0"/><path d="M271.57,170.31a14.46,14.46,0,0,1-14.44-14.44v-5a1,1,0,0,1,.48-.86s3.48-2.1,4.36-4.75a1,1,0,0,1,.68-.65,1,1,0,0,1,.93.22s4.09,3.56,8.66,4.48a26.26,26.26,0,0,0,12.44-.66,1,1,0,0,1,1.33.94v6.23A14.46,14.46,0,0,1,271.57,170.31Zm-12.44-18.84v4.4a12.44,12.44,0,1,0,24.88,0V151a28.27,28.27,0,0,1-12.17.36,22.59,22.59,0,0,1-8.54-4.12A14.13,14.13,0,0,1,259.13,151.47Z" fill="#093f68"/><path d="M271.5,160.7a7.64,7.64,0,0,1-1.31-.11,1,1,0,0,1-.81-1.16,1,1,0,0,1,1.15-.81,4.53,4.53,0,0,0,1,.08,14,14,0,0,0-.89-2.12,1,1,0,0,1,1.78-.92c1.05,2,1.41,3.43,1.06,4.19a1.26,1.26,0,0,1-.86.73A5,5,0,0,1,271.5,160.7Z" fill="#093f68"/><path d="M263.84,191.47a1,1,0,0,1-1-1V180.34a1,1,0,1,1,2,0v10.13A1,1,0,0,1,263.84,191.47Z" fill="#093f68"/><path d="M279.06,191.47a1,1,0,0,1-1-1V180.34a1,1,0,1,1,2,0v10.13A1,1,0,0,1,279.06,191.47Z" fill="#093f68"/><path d="M253.7,207.56H242.77a1,1,0,0,1,0-2H253.7a1,1,0,0,1,0,2Z" fill="#dfeaef"/><path d="M269.18,207.56H258.25a1,1,0,0,1,0-2h10.93a1,1,0,0,1,0,2Z" fill="#dfeaef"/><path d="M284.65,207.56H273.72a1,1,0,0,1,0-2h10.93a1,1,0,0,1,0,2Z" fill="#dfeaef"/><path d="M300.13,207.56H289.2a1,1,0,0,1,0-2h10.93a1,1,0,0,1,0,2Z" fill="#dfeaef"/><circle cx="305.28" cy="176.23" r="16.53" fill="#70cc40"/><path d="M305.28,193.76a17.53,17.53,0,1,1,17.53-17.53A17.54,17.54,0,0,1,305.28,193.76Zm0-33.06a15.53,15.53,0,1,0,15.53,15.53A15.55,15.55,0,0,0,305.28,160.7Z" fill="#093f68"/><path d="M301.63,185.14l-.33,0a3,3,0,0,1-2.09-1.21l-4.44-6.08a3,3,0,0,1,4.85-3.54l2.49,3.42L312,169a3,3,0,1,1,4,4.5l-12.39,10.92A3,3,0,0,1,301.63,185.14Z" fill="#fff"/><circle cx="271.45" cy="225.26" r="3.02" fill="#68e1fd" class="target-color"/><path d="M271.45,229.28a4,4,0,1,1,4-4A4,4,0,0,1,271.45,229.28Zm0-6a2,2,0,1,0,2,2A2,2,0,0,0,271.45,223.25Z" fill="#093f68"/><path d="M266.25,105.19H264a1,1,0,0,1,0-2h2.28a1,1,0,0,1,0,2Z" fill="#093f68"/><path d="M278.92,105.19h-8.85a1,1,0,0,1,0-2h8.85a1,1,0,0,1,0,2Z" fill="#093f68"/><rect x="109.92" y="128.92" width="111.19" height="23.42" rx="11.71" fill="#fff"/><path d="M209.4,153.34H121.63a12.71,12.71,0,1,1,0-25.42H209.4a12.71,12.71,0,1,1,0,25.42Zm-87.77-23.42a10.71,10.71,0,1,0,0,21.42H209.4a10.71,10.71,0,0,0,0-21.42Z" fill="#093f68"/><path d="M129.63,148.9a1,1,0,0,1-1-1V133.36a1,1,0,0,1,2,0V147.9A1,1,0,0,1,129.63,148.9Z" fill="#093f68"/><line x1="135.96" y1="137.06" x2="123.3" y2="144.21" fill="#68e1fd" class="target-color"/><path d="M123.3,145.21a1,1,0,0,1-.88-.51,1,1,0,0,1,.38-1.36l12.67-7.16a1,1,0,0,1,1.36.38,1,1,0,0,1-.38,1.37l-12.66,7.15A1,1,0,0,1,123.3,145.21Z" fill="#093f68"/><line x1="123.3" y1="137.06" x2="135.96" y2="144.21" fill="#68e1fd" class="target-color"/><path d="M136,145.21a1,1,0,0,1-.49-.13l-12.67-7.15a1,1,0,1,1,1-1.75l12.66,7.16a1,1,0,0,1-.49,1.87Z" fill="#093f68"/><path d="M153.55,148.9a1,1,0,0,1-1-1V133.36a1,1,0,0,1,2,0V147.9A1,1,0,0,1,153.55,148.9Z" fill="#093f68"/><line x1="159.88" y1="137.06" x2="147.22" y2="144.21" fill="#68e1fd" class="target-color"/><path d="M147.22,145.21a1,1,0,0,1-.49-1.87l12.66-7.16a1,1,0,0,1,1,1.75l-12.67,7.15A1,1,0,0,1,147.22,145.21Z" fill="#093f68"/><line x1="147.22" y1="137.06" x2="159.88" y2="144.21" fill="#68e1fd" class="target-color"/><path d="M159.88,145.21a1,1,0,0,1-.49-.13l-12.66-7.15a1,1,0,0,1-.38-1.37,1,1,0,0,1,1.36-.38l12.67,7.16a1,1,0,0,1,.37,1.36A1,1,0,0,1,159.88,145.21Z" fill="#093f68"/><path d="M177.47,148.9a1,1,0,0,1-1-1V133.36a1,1,0,0,1,2,0V147.9A1,1,0,0,1,177.47,148.9Z" fill="#093f68"/><line x1="183.81" y1="137.06" x2="171.14" y2="144.21" fill="#68e1fd" class="target-color"/><path d="M171.14,145.21a1,1,0,0,1-.87-.51,1,1,0,0,1,.38-1.36l12.67-7.16a1,1,0,0,1,1.36.38,1,1,0,0,1-.38,1.37l-12.67,7.15A1,1,0,0,1,171.14,145.21Z" fill="#093f68"/><line x1="171.14" y1="137.06" x2="183.81" y2="144.21" fill="#68e1fd" class="target-color"/><path d="M183.81,145.21a1,1,0,0,1-.49-.13l-12.67-7.15a1,1,0,0,1-.38-1.37,1,1,0,0,1,1.36-.38l12.67,7.16a1,1,0,0,1,.38,1.36A1,1,0,0,1,183.81,145.21Z" fill="#093f68"/><path d="M201.4,148.9a1,1,0,0,1-1-1V133.36a1,1,0,0,1,2,0V147.9A1,1,0,0,1,201.4,148.9Z" fill="#093f68"/><line x1="207.73" y1="137.06" x2="195.07" y2="144.21" fill="#68e1fd" class="target-color"/><path d="M195.07,145.21a1,1,0,0,1-.87-.51,1,1,0,0,1,.37-1.36l12.67-7.16a1,1,0,0,1,1,1.75l-12.66,7.15A1,1,0,0,1,195.07,145.21Z" fill="#093f68"/><line x1="195.07" y1="137.06" x2="207.73" y2="144.21" fill="#68e1fd" class="target-color"/><path d="M207.73,145.21a1,1,0,0,1-.49-.13l-12.67-7.15a1,1,0,0,1,1-1.75l12.66,7.16a1,1,0,0,1-.49,1.87Z" fill="#093f68"/><path d="M158.34,109.17a1,1,0,0,1-1-.78l-1.31-6.06a7.2,7.2,0,1,1,14.07-3.06,1,1,0,0,1-2,.43,5.17,5.17,0,0,0-2.27-3.27A5.21,5.21,0,0,0,158.71,98a5.2,5.2,0,0,0-.71,3.92l1.32,6.06a1,1,0,0,1-.77,1.19A.75.75,0,0,1,158.34,109.17Z" fill="#fff"/><path d="M154.81,107h17.64a0,0,0,0,1,0,0v9.78a5.61,5.61,0,0,1-5.61,5.61h-6.42a5.61,5.61,0,0,1-5.61-5.61V107A0,0,0,0,1,154.81,107Z" fill="#f56132"/><path d="M166.84,123.39h-6.42a6.62,6.62,0,0,1-6.61-6.61V107a1,1,0,0,1,1-1h17.64a1,1,0,0,1,1,1v9.78A6.62,6.62,0,0,1,166.84,123.39Zm-11-15.39v8.78a4.62,4.62,0,0,0,4.61,4.61h6.42a4.62,4.62,0,0,0,4.61-4.61V108Z" fill="#093f68"/><circle cx="163.73" cy="112.33" r="1.81" fill="#093f68"/><path d="M163.73,115.14a2.81,2.81,0,1,1,2.81-2.81A2.81,2.81,0,0,1,163.73,115.14Zm0-3.62a.81.81,0,1,0,.81.81A.8.8,0,0,0,163.73,111.52Z" fill="#093f68"/><path d="M163.73,119.46a1,1,0,0,1-1-1V113a1,1,0,1,1,2,0v5.42A1,1,0,0,1,163.73,119.46Z" fill="#093f68"/></g></svg>